<?xml version="1.0" encoding="UTF-8"?>
<svg width="120px" height="40px" viewBox="0 0 120 40" xmlns="http://www.w3.org/2000/svg" xmlns:xlink="http://www.w3.org/1999/xlink" version="1.1">
 <!-- Generated by Pixelmator Pro 2.1.2 -->
 <g id="group">
  <g id="group-1">
   <g id="group-2">
    <path id="Path" d="M110.135 0 L9.535 0 C9.168 0 8.806 0 8.44 0.002 8.134 0.004 7.83 0.01 7.521 0.015 6.85 0.023 6.18 0.082 5.517 0.191 4.856 0.304 4.215 0.515 3.616 0.818 3.019 1.124 2.472 1.522 1.998 1.997 1.52 2.471 1.122 3.018 0.819 3.618 0.515 4.217 0.305 4.859 0.194 5.521 0.083 6.183 0.023 6.853 0.015 7.523 0.006 7.83 0.005 8.138 0 8.444 L0 31.559 C0.005 31.869 0.006 32.17 0.015 32.48 0.023 33.151 0.083 33.821 0.194 34.482 0.304 35.145 0.515 35.788 0.819 36.387 1.122 36.985 1.52 37.53 1.998 38.001 2.471 38.478 3.017 38.876 3.616 39.18 4.215 39.484 4.855 39.697 5.517 39.81 6.18 39.919 6.85 39.978 7.521 39.987 7.83 39.994 8.134 39.998 8.44 39.998 8.806 40 9.168 40 9.535 40 L110.135 40 C110.494 40 110.859 40 111.219 39.998 111.523 39.998 111.836 39.994 112.141 39.987 112.811 39.979 113.479 39.92 114.141 39.81 114.804 39.696 115.448 39.483 116.049 39.18 116.647 38.876 117.194 38.478 117.666 38.001 118.142 37.528 118.541 36.983 118.848 36.387 119.15 35.787 119.358 35.145 119.467 34.482 119.578 33.821 119.64 33.151 119.652 32.481 119.656 32.17 119.656 31.869 119.656 31.559 119.664 31.195 119.664 30.834 119.664 30.465 L119.664 9.536 C119.664 9.17 119.664 8.807 119.656 8.444 119.656 8.138 119.656 7.83 119.652 7.523 119.64 6.852 119.578 6.183 119.467 5.521 119.358 4.859 119.149 4.218 118.848 3.618 118.23 2.415 117.252 1.436 116.049 0.818 115.448 0.516 114.804 0.304 114.141 0.191 113.48 0.081 112.811 0.022 112.141 0.015 111.836 0.01 111.523 0.004 111.219 0.002 110.859 -0 110.494 -0 110.135 -0 Z" fill="#a6a6a6" fill-opacity="1" stroke="none"/>
    <path id="Path-1" d="M8.445 39.125 C8.14 39.125 7.843 39.121 7.541 39.114 6.914 39.106 6.29 39.052 5.671 38.951 5.095 38.852 4.537 38.667 4.015 38.403 3.497 38.142 3.026 37.798 2.618 37.387 2.204 36.98 1.859 36.508 1.597 35.99 1.333 35.469 1.149 34.91 1.054 34.333 0.951 33.713 0.896 33.086 0.888 32.458 0.881 32.247 0.873 31.545 0.873 31.545 L0.873 8.444 C0.873 8.444 0.882 7.753 0.888 7.55 0.895 6.923 0.951 6.297 1.053 5.678 1.149 5.099 1.332 4.539 1.597 4.016 1.857 3.498 2.2 3.026 2.612 2.618 3.023 2.206 3.496 1.861 4.014 1.595 4.535 1.332 5.092 1.149 5.667 1.051 6.288 0.95 6.915 0.895 7.543 0.887 L8.445 0.875 111.214 0.875 112.127 0.888 C112.75 0.895 113.371 0.949 113.985 1.05 114.566 1.149 115.13 1.334 115.656 1.598 116.694 2.133 117.539 2.979 118.071 4.018 118.332 4.538 118.512 5.094 118.606 5.667 118.71 6.291 118.768 6.922 118.78 7.554 118.783 7.837 118.783 8.142 118.783 8.444 118.791 8.819 118.791 9.176 118.791 9.536 L118.791 30.465 C118.791 30.828 118.791 31.183 118.783 31.54 118.783 31.865 118.783 32.163 118.779 32.47 118.768 33.091 118.71 33.71 118.608 34.323 118.515 34.904 118.333 35.468 118.068 35.993 117.805 36.506 117.462 36.973 117.053 37.379 116.644 37.793 116.172 38.138 115.653 38.401 115.128 38.667 114.566 38.853 113.985 38.951 113.367 39.052 112.742 39.107 112.116 39.114 111.823 39.121 111.517 39.125 111.219 39.125 L110.135 39.127 Z" fill="#000000" fill-opacity="1" stroke="none"/>
    <defs>
     <text id="string" transform="matrix(1.0 0.0 0.0 1.0 39.0 7.5)" font-family="Helvetica-Light, Helvetica" y="6.0" x="1.0" font-size="8" fill="#ffffff" text-decoration="none" letter-spacing="0.2">Available on the</text>
    </defs>
    <use id="Available-on-the" xlink:href="#string"/>
    <defs>
     <text id="string-1" transform="matrix(1.0 0.0 0.0 1.0 39.0 18.0)" x="1.0" font-family="Helvetica, Helvetica" y="12.0" fill="#ffffff" font-size="16" text-decoration="none">Web</text>
    </defs>
    <use id="Web" xlink:href="#string-1"/>
   </g>
  </g>
  <g id="_Group_4"/>
 </g>
 <path id="globe-solid" d="M24.607 16.045 C23.934 11.903 22.348 8.995 20.502 8.995 18.656 8.995 17.07 11.903 16.398 16.045 L24.607 16.045 Z M16.05 20.498 C16.05 21.527 16.105 22.515 16.203 23.466 L24.797 23.466 C24.895 22.515 24.95 21.527 24.95 20.498 24.95 19.468 24.895 18.48 24.797 17.529 L16.203 17.529 C16.105 18.48 16.05 19.468 16.05 20.498 Z M31.109 16.045 C29.783 12.896 27.098 10.461 23.781 9.478 24.913 11.045 25.692 13.406 26.1 16.045 L31.109 16.045 Z M17.219 9.478 C13.907 10.461 11.217 12.896 9.895 16.045 L14.904 16.045 C15.308 13.406 16.087 11.045 17.219 9.478 Z M31.606 17.529 L26.286 17.529 C26.383 18.503 26.439 19.501 26.439 20.498 26.439 21.495 26.383 22.492 26.286 23.466 L31.601 23.466 C31.856 22.515 32 21.527 32 20.498 32 19.468 31.856 18.48 31.606 17.529 Z M14.566 20.498 C14.566 19.501 14.621 18.503 14.719 17.529 L9.399 17.529 C9.148 18.48 9 19.468 9 20.498 9 21.527 9.148 22.515 9.399 23.466 L14.714 23.466 C14.621 22.492 14.566 21.495 14.566 20.498 Z M16.398 24.95 C17.07 29.092 18.656 32 20.502 32 22.348 32 23.934 29.092 24.607 24.95 L16.398 24.95 Z M23.786 31.518 C27.098 30.534 29.788 28.099 31.114 24.95 L26.105 24.95 C25.697 27.589 24.918 29.95 23.786 31.518 Z M9.895 24.95 C11.222 28.099 13.907 30.534 17.223 31.518 16.092 29.95 15.312 27.589 14.904 24.95 L9.895 24.95 Z" fill="#ffffff" fill-opacity="1" stroke="none"/>
</svg>
